<svg
   version="1.1"
   x="0px"
   y="0px"
   viewBox="0 0 132.54493 97.2168"
   xmlns="http://www.w3.org/2000/svg">
  <path
     style="display:inline;fill:#E85693;fill-opacity:1;stroke:none;stroke-width:0.203865;stroke-dasharray:none;stroke-opacity:1"
     d="M 69.576176,4.3713563e-8 A 16.084751,15.971793 0 0 0 53.490235,15.970703 16.084751,15.971793 0 0 0 55.976563,24.480469 L 34.904297,58.443355 a 11.896626,12.034832 0 0 0 -4.107422,-0.74414 11.896626,12.034832 0 0 0 -4.570312,0.94727 L 14.841797,44.669922 A 7.9246473,7.93542 0 0 0 15.84961,40.837891 7.9246473,7.93542 0 0 0 7.923828,32.902344 7.9246473,7.93542 0 0 0 0,40.837891 a 7.9246473,7.93542 0 0 0 7.923828,7.935544 7.9246473,7.93542 0 0 0 1.027344,-0.0723 l 11.007813,16.07812 a 11.896626,12.034832 0 0 0 -1.058594,4.95508 11.896626,12.034832 0 0 0 11.896484,12.03516 11.896626,12.034832 0 0 0 11.896485,-12.03516 11.896626,12.034832 0 0 0 -0.619141,-3.81836 L 67.427735,31.791016 a 16.084751,15.971793 0 0 0 2.148441,0.152343 16.084751,15.971793 0 0 0 2.07422,-0.146484 l 26.63281,40.40625 a 17.863302,17.95924 0 0 0 -1.46485,7.05469 17.863302,17.95924 0 0 0 17.863284,17.95898 17.863302,17.95924 0 0 0 17.86329,-17.95898 17.863302,17.95924 0 0 0 -17.86329,-17.95899 17.863302,17.95924 0 0 0 -1.8789,0.13477 L 84.041016,22.90625 A 16.084751,15.971793 0 0 0 85.660156,15.970703 16.084751,15.971793 0 0 0 69.576176,4.3713563e-8 Z"
     id="path1" />
</svg>
